<svg width="800" height="700" viewBox="0 0 800 700" fill="none" xmlns="http://www.w3.org/2000/svg">
<path d="M506.667 0C513.463 0.00754427 520.001 2.61198 524.943 7.28117C529.885 11.9504 532.86 18.3319 533.258 25.1218C533.656 31.9118 531.449 38.5977 527.086 43.8136C522.724 49.0294 516.536 52.3814 509.787 53.1847L506.667 53.3715V180.503L557.173 281.615C558.568 284.382 559.47 287.371 559.84 290.448L560 293.543V346.915C559.999 353.451 557.601 359.76 553.261 364.644C548.921 369.529 542.94 372.649 536.453 373.414L533.333 373.601H426.667V480.344C426.659 487.145 424.057 493.688 419.391 498.633C414.725 503.579 408.348 506.555 401.563 506.954C394.778 507.353 388.097 505.144 382.884 500.778C377.672 496.413 374.323 490.22 373.52 483.466L373.333 480.344V373.601H266.667C260.135 373.6 253.831 371.2 248.95 366.857C244.069 362.513 240.951 356.529 240.187 350.037L240 346.915V293.543C240.004 290.449 240.545 287.379 241.6 284.47L242.827 281.615L293.333 180.449V53.3715C286.537 53.364 279.999 50.7596 275.057 46.0904C270.115 41.4212 267.14 35.0397 266.742 28.2497C266.344 21.4597 268.551 14.7738 272.914 9.55797C277.276 4.34216 283.464 0.990138 290.213 0.1868L293.333 0H506.667Z" fill="black"/>
<path fill-rule="evenodd" clip-rule="evenodd" d="M75 0C33.5938 0 0 33.5938 0 75V625C0 666.406 33.5938 700 75 700H725C766.406 700 800 666.406 800 625V75C800 33.5938 766.406 0 725 0V250V276V615.625C725 620.781 720.781 625 715.625 625H84.375C79.2188 625 75 620.781 75 615.625V276V250V0Z" fill="black"/>
</svg>
